# xmcd CD database file
#
# Track frame offsets:
#	182
#	11055
#	22632
#	31735
#	43102
#	56292
#	64740
#	77365
#	88957
#	98130
#	108907
#	120672
#	129695
#	142587
#	157535
#	170535
#
# Disc length: 2434 seconds
#
# Revision: 0
# Processed by: cddbd v1.4PL0 Copyright (c) Steve Scherf et al.
# Submitted via: Feurio! 1.64 - http://www.feurio.com
#
DISCID=b3098010
DTITLE=Don Gibson - No One Stands Alone-1958
DYEAR=1995
DGENRE=Country
TTITLE0=Satisfied
TTITLE1=(Prayer Is The Key To Heaven) Faith Unlocks The Door
TTITLE2=That Lonesome Valley
TTITLE3=Evening Prayer
TTITLE4=Known Only To Him
TTITLE5=Canaan's Land
TTITLE6=Where No One Stands Alone
TTITLE7=My God Is Real
TTITLE8=Wait For The Light To Shine
TTITLE9=Taller Than Trees
TTITLE10=Lord I'm Going Home
TTITLE11=Climbing Up The Mountain
TTITLE12=Be Ready
TTITLE13=Old Ship Of Zion
TTITLE14=Hide Me, Rock Of Ages
TTITLE15=God Walks These Hills With Me
EXTD=RCA-1958\r\nBMG Ariola-1995
EXTT0=
EXTT1=
EXTT2=
EXTT3=
EXTT4=
EXTT5=
EXTT6=
EXTT7=
EXTT8=
EXTT9=
EXTT10=
EXTT11=
EXTT12=(Bonustrack-1962)
EXTT13=(Bonustrack-1962)
EXTT14=(Bonustrack-1963)
EXTT15=(Bonustrack-1963)
PLAYORDER=
